<mxfile host="65bd71144e" modified="2020-11-01T01:35:18.642Z" agent="5.0 (Macintosh; Intel Mac OS X 10_15_7) AppleWebKit/537.36 (KHTML, like Gecko) Code/1.50.1 Chrome/83.0.4103.122 Electron/9.2.1 Safari/537.36" etag="h8uHzJVvcjk8rCM076KO" version="13.6.5">
    <diagram id="Ptf1XDcUshAJHyFpFtnE" name="Page-1">
        <mxGraphModel dx="52" dy="65" grid="1" gridSize="10" guides="1" tooltips="1" connect="1" arrows="1" fold="1" page="1" pageScale="1" pageWidth="800" pageHeight="800" math="0" shadow="0">
            <root>
                <mxCell id="0"/>
                <mxCell id="1" parent="0"/>
                <mxCell id="ZOvoqp8BJXh1wy40Sb7h-14" style="edgeStyle=orthogonalEdgeStyle;rounded=0;orthogonalLoop=1;jettySize=auto;html=1;exitX=0.5;exitY=0;exitDx=0;exitDy=0;entryX=0.5;entryY=1.038;entryDx=0;entryDy=0;entryPerimeter=0;endArrow=block;endFill=1;fontFamily=Fira Code;" parent="1" source="ZOvoqp8BJXh1wy40Sb7h-1" target="ZOvoqp8BJXh1wy40Sb7h-13" edge="1">
                    <mxGeometry relative="1" as="geometry"/>
                </mxCell>
                <mxCell id="ZOvoqp8BJXh1wy40Sb7h-10" value="UnitTestDSAHashSet" style="swimlane;fontStyle=1;align=center;verticalAlign=top;childLayout=stackLayout;horizontal=1;startSize=26;horizontalStack=0;resizeParent=1;resizeParentMax=0;resizeLast=0;collapsible=1;marginBottom=0;fontFamily=Fira Code;" parent="1" vertex="1">
                    <mxGeometry x="298" y="88" width="210" height="60" as="geometry"/>
                </mxCell>
                <mxCell id="ZOvoqp8BJXh1wy40Sb7h-12" value="" style="line;strokeWidth=1;fillColor=none;align=left;verticalAlign=middle;spacingTop=-1;spacingLeft=3;spacingRight=3;rotatable=0;labelPosition=right;points=[];portConstraint=eastwest;" parent="ZOvoqp8BJXh1wy40Sb7h-10" vertex="1">
                    <mxGeometry y="26" width="210" height="8" as="geometry"/>
                </mxCell>
                <mxCell id="ZOvoqp8BJXh1wy40Sb7h-13" value="+ main()" style="text;strokeColor=none;fillColor=none;align=left;verticalAlign=top;spacingLeft=4;spacingRight=4;overflow=hidden;rotatable=0;points=[[0,0.5],[1,0.5]];portConstraint=eastwest;fontFamily=Fira Code;" parent="ZOvoqp8BJXh1wy40Sb7h-10" vertex="1">
                    <mxGeometry y="34" width="210" height="26" as="geometry"/>
                </mxCell>
                <mxCell id="ZOvoqp8BJXh1wy40Sb7h-1" value="DSAHashSet" style="swimlane;fontStyle=1;align=center;verticalAlign=top;childLayout=stackLayout;horizontal=1;startSize=26;horizontalStack=0;resizeParent=1;resizeParentMax=0;resizeLast=0;collapsible=1;marginBottom=0;fontFamily=Fira Code;" parent="1" vertex="1">
                    <mxGeometry x="195" y="188" width="410" height="410" as="geometry"/>
                </mxCell>
                <mxCell id="ZOvoqp8BJXh1wy40Sb7h-2" value="- entries: DSAHashEntry[]&#10;- count: Integer&#10;- load: Double" style="text;strokeColor=none;fillColor=none;align=left;verticalAlign=top;spacingLeft=4;spacingRight=4;overflow=hidden;rotatable=0;points=[[0,0.5],[1,0.5]];portConstraint=eastwest;fontFamily=Fira Code;" parent="ZOvoqp8BJXh1wy40Sb7h-1" vertex="1">
                    <mxGeometry y="26" width="410" height="54" as="geometry"/>
                </mxCell>
                <mxCell id="ZOvoqp8BJXh1wy40Sb7h-3" value="" style="line;strokeWidth=1;fillColor=none;align=left;verticalAlign=middle;spacingTop=-1;spacingLeft=3;spacingRight=3;rotatable=0;labelPosition=right;points=[];portConstraint=eastwest;" parent="ZOvoqp8BJXh1wy40Sb7h-1" vertex="1">
                    <mxGeometry y="80" width="410" height="8" as="geometry"/>
                </mxCell>
                <mxCell id="ZOvoqp8BJXh1wy40Sb7h-4" value="+ add(String inValue)&#10;+ contains(String inValue)&#10;+ remove(String inValue)&#10;+ getEntry(String inValue): DSAHashSetEntry foundEntry&#10;+ getCount(): Integer count&#10;+ getLoad(): Double load&#10;+ isEmpty(): Boolean isEmpty&#10;+ isFull(): Boolean isFull&#10;+ read(String filename)&#10;+ write(String filename)&#10;+ toString(): String entriesString&#10;- _add(String inValue)&#10;- _remove(int foundEntryHash)&#10;- _findEntry(String inValue)&#10;- _findNextPrime(Integer start)&#10;- _hashValue(String inValue)&#10;- _toStep(Integer valueHash)&#10;- _resize(): DSAHashSetEntry[] entries&#10;- _addAfterResize(String inValue)&#10;- _read(String filename)&#10;- _countLines(String filename)&#10;- _write(String filename)&#10;&#10;&#10;" style="text;strokeColor=none;fillColor=none;align=left;verticalAlign=top;spacingLeft=4;spacingRight=4;overflow=hidden;rotatable=0;points=[[0,0.5],[1,0.5]];portConstraint=eastwest;fontFamily=Fira Code;" parent="ZOvoqp8BJXh1wy40Sb7h-1" vertex="1">
                    <mxGeometry y="88" width="410" height="322" as="geometry"/>
                </mxCell>
                <mxCell id="3" style="edgeStyle=orthogonalEdgeStyle;rounded=0;orthogonalLoop=1;jettySize=auto;html=1;exitX=0.5;exitY=0;exitDx=0;exitDy=0;entryX=0.5;entryY=1;entryDx=0;entryDy=0;endArrow=diamond;endFill=1;" edge="1" parent="1" source="ZOvoqp8BJXh1wy40Sb7h-5" target="ZOvoqp8BJXh1wy40Sb7h-1">
                    <mxGeometry relative="1" as="geometry"/>
                </mxCell>
                <mxCell id="ZOvoqp8BJXh1wy40Sb7h-5" value="DSAHashSetEntry" style="swimlane;fontStyle=1;align=center;verticalAlign=top;childLayout=stackLayout;horizontal=1;startSize=26;horizontalStack=0;resizeParent=1;resizeParentMax=0;resizeLast=0;collapsible=1;marginBottom=0;fontFamily=Fira Code;" parent="1" vertex="1">
                    <mxGeometry x="295" y="643" width="210" height="68" as="geometry"/>
                </mxCell>
                <mxCell id="ZOvoqp8BJXh1wy40Sb7h-6" value="- value: String&#10;- state: Integer" style="text;strokeColor=none;fillColor=none;align=left;verticalAlign=top;spacingLeft=4;spacingRight=4;overflow=hidden;rotatable=0;points=[[0,0.5],[1,0.5]];portConstraint=eastwest;fontFamily=Fira Code;" parent="ZOvoqp8BJXh1wy40Sb7h-5" vertex="1">
                    <mxGeometry y="26" width="210" height="34" as="geometry"/>
                </mxCell>
                <mxCell id="ZOvoqp8BJXh1wy40Sb7h-7" value="" style="line;strokeWidth=1;fillColor=none;align=left;verticalAlign=middle;spacingTop=-1;spacingLeft=3;spacingRight=3;rotatable=0;labelPosition=right;points=[];portConstraint=eastwest;" parent="ZOvoqp8BJXh1wy40Sb7h-5" vertex="1">
                    <mxGeometry y="60" width="210" height="8" as="geometry"/>
                </mxCell>
            </root>
        </mxGraphModel>
    </diagram>
</mxfile>